HIERARCHY
ROOT hip
{
  OFFSET 0 0 0
  CHANNELS 6 Xposition Yposition Zposition Zrotation Yrotation Xrotation
  JOINT abdomen
  {
    OFFSET 0 20.6881 -0.73152
    CHANNELS 3 Zrotation Xrotation Yrotation
    JOINT chest
    {
      OFFSET 0 11.7043 -0.48768
      CHANNELS 3 Zrotation Xrotation Yrotation
      JOINT neck
      {
        OFFSET 0 22.1894 -2.19456
        CHANNELS 3 Zrotation Xrotation Yrotation
        JOINT head
        {
          OFFSET -0.24384 7.07133 1.2192
          CHANNELS 3 Zrotation Xrotation Yrotation
          JOINT leftEye
          {
            OFFSET 4.14528 8.04674 8.04672
            CHANNELS 3 Zrotation Xrotation Yrotation
            End Site
            {
              OFFSET 1 0 0
            }
          }
          JOINT rightEye
          {
            OFFSET -3.6576 8.04674 8.04672
            CHANNELS 3 Zrotation Xrotation Yrotation
            End Site
            {
              OFFSET 1 0 0
            }
          }
        }
      }
      JOINT rCollar
      {
        OFFSET -2.68224 19.2634 -4.8768
        CHANNELS 3 Zrotation Xrotation Yrotation
        JOINT rShldr
        {
          OFFSET -8.77824 -1.95073 1.46304
          CHANNELS 3 Zrotation Xrotation Yrotation
          JOINT rForeArm
          {
            OFFSET -28.1742 -1.7115 0.48768
            CHANNELS 3 Zrotation Xrotation Yrotation
            JOINT rHand
            {
              OFFSET -22.5879 0.773209 7.07136
              CHANNELS 3 Zrotation Xrotation Yrotation
              JOINT rThumb1
              {
                OFFSET -1.2192 -0.487915 3.41376
                CHANNELS 3 Zrotation Xrotation Yrotation
                JOINT rThumb2
                {
                  OFFSET -3.37035 -0.52449 3.41376
                  CHANNELS 3 Zrotation Xrotation Yrotation
                  End Site
                  {
                    OFFSET -1.78271 -1.18214 1.43049
                  }
                }
              }
              JOINT rIndex1
              {
                OFFSET -7.75947 0.938293 5.60832
                CHANNELS 3 Zrotation Xrotation Yrotation
                JOINT rIndex2
                {
                  OFFSET -2.54057 -0.884171 1.56538
                  CHANNELS 3 Zrotation Xrotation Yrotation
                  End Site
                  {
                    OFFSET -1.62519 -0.234802 1.16502
                  }
                }
              }
              JOINT rMid1
              {
                OFFSET -8.24714 1.18213 3.41376
                CHANNELS 3 Zrotation Xrotation Yrotation
                JOINT rMid2
                {
                  OFFSET -3.10165 -0.590103 1.0647
                  CHANNELS 3 Zrotation Xrotation Yrotation
                  End Site
                  {
                    OFFSET -2.48547 -0.328903 0.83742
                  }
                }
              }
              JOINT rRing1
              {
                OFFSET -8.82822 0.546677 1.51678
                CHANNELS 3 Zrotation Xrotation Yrotation
                JOINT rRing2
                {
                  OFFSET -2.60934 -0.819778 -0.0198488
                  CHANNELS 3 Zrotation Xrotation Yrotation
                  End Site
                  {
                    OFFSET -2.33842 -0.294052 0.168128
                  }
                }
              }
              JOINT rPinky1
              {
                OFFSET -8.27202 -0.0477905 -0.4584
                CHANNELS 3 Zrotation Xrotation Yrotation
                JOINT rPinky2
                {
                  OFFSET -1.82734 -0.647385 -0.700984
                  CHANNELS 3 Zrotation Xrotation Yrotation
                  End Site
                  {
                    OFFSET -1.69225 -0.51767 -0.607171
                  }
                }
              }
            }
          }
        }
      }
      JOINT lCollar
      {
        OFFSET 2.68224 19.2634 -4.8768
        CHANNELS 3 Zrotation Xrotation Yrotation
        JOINT lShldr
        {
          OFFSET 8.77824 -1.95073 1.46304
          CHANNELS 3 Zrotation Xrotation Yrotation
          JOINT lForeArm
          {
            OFFSET 28.1742 -1.7115 0.48768
            CHANNELS 3 Zrotation Xrotation Yrotation
            JOINT lHand
            {
              OFFSET 22.5879 0.773209 7.07136
              CHANNELS 3 Zrotation Xrotation Yrotation
              JOINT lThumb1
              {
                OFFSET 1.2192 -0.487915 3.41376
                CHANNELS 3 Zrotation Xrotation Yrotation
                JOINT lThumb2
                {
                  OFFSET 3.37035 -0.52449 3.41376
                  CHANNELS 3 Zrotation Xrotation Yrotation
                  End Site
                  {
                    OFFSET 1.78271 -1.18214 1.43049
                  }
                }
              }
              JOINT lIndex1
              {
                OFFSET 7.75947 0.938293 5.60832
                CHANNELS 3 Zrotation Xrotation Yrotation
                JOINT lIndex2
                {
                  OFFSET 2.54057 -0.884171 1.56538
                  CHANNELS 3 Zrotation Xrotation Yrotation
                  End Site
                  {
                    OFFSET 1.62519 -0.234802 1.16502
                  }
                }
              }
              JOINT lMid1
              {
                OFFSET 8.24714 1.18213 3.41376
                CHANNELS 3 Zrotation Xrotation Yrotation
                JOINT lMid2
                {
                  OFFSET 3.10165 -0.590103 1.0647
                  CHANNELS 3 Zrotation Xrotation Yrotation
                  End Site
                  {
                    OFFSET 2.48547 -0.328903 0.83742
                  }
                }
              }
              JOINT lRing1
              {
                OFFSET 8.82822 0.546677 1.51678
                CHANNELS 3 Zrotation Xrotation Yrotation
                JOINT lRing2
                {
                  OFFSET 2.60934 -0.819778 -0.0198488
                  CHANNELS 3 Zrotation Xrotation Yrotation
                  End Site
                  {
                    OFFSET 2.33842 -0.294052 0.168128
                  }
                }
              }
              JOINT lPinky1
              {
                OFFSET 8.27202 -0.0477905 -0.4584
                CHANNELS 3 Zrotation Xrotation Yrotation
                JOINT lPinky2
                {
                  OFFSET 1.82734 -0.647385 -0.700984
                  CHANNELS 3 Zrotation Xrotation Yrotation
                  End Site
                  {
                    OFFSET 1.69225 -0.51767 -0.607171
                  }
                }
              }
            }
          }
        }
      }
    }
  }
  JOINT rButtock
  {
    OFFSET -8.77824 4.35084 1.2192
    CHANNELS 3 Zrotation Xrotation Yrotation
    JOINT rThigh
    {
      OFFSET 0 -1.70687 -2.19456
      CHANNELS 3 Zrotation Xrotation Yrotation
      JOINT rShin
      {
        OFFSET 0 -36.8199 0.73152
        CHANNELS 3 Zrotation Xrotation Yrotation
        JOINT rFoot
        {
          OFFSET 0.73152 -45.1104 -5.12064
          CHANNELS 3 Zrotation Xrotation Yrotation
          End Site
          {
            OFFSET -1.1221 -3.69964 12.103
          }
        }
      }
    }
  }
  JOINT lButtock
  {
    OFFSET 8.77824 4.35084 1.2192
    CHANNELS 3 Zrotation Xrotation Yrotation
    JOINT lThigh
    {
      OFFSET 0 -1.70687 -2.19456
      CHANNELS 3 Zrotation Xrotation Yrotation
      JOINT lShin
      {
        OFFSET 0 -36.8199 0.73152
        CHANNELS 3 Zrotation Xrotation Yrotation
        JOINT lFoot
        {
          OFFSET -0.73152 -45.1104 -5.12064
          CHANNELS 3 Zrotation Xrotation Yrotation
          End Site
          {
            OFFSET 1.1221 -3.69964 12.103
          }
        }
      }
    }
  }
}
MOTION
Frames:	4
Frame Time:	0.03333
-56.73159975114119 70.64000205680628 23.6308000349796 11.63299560546875 -69.25350952148438 -17.00398063659668 -11.324199676513672 15.103699684143066 7.198739528656006 2.0661396980285645 -9.006470680236816 1.744480013847351 -8.561200141906738 15.533401489257812 -13.346199035644531 11.23279857635498 -23.777402877807617 -23.915401458740234 -0.0 0.0 -0.0 -0.0 0.0 -0.0 -1.7129600147179624e-13 -5.08890997917566e-13 -1.6205899198550727e-13 33.89509582519531 -16.87940216064453 63.72739791870117 -8.551029205322266 -3.306230306625366 15.110898971557617 -0.8609349727630615 25.377201080322266 3.8224704265594482 -1.0906899827745065e-09 -6.927179940774408e-10 1.1990100023950845e-09 -1.8592398731698268e-09 -1.2020999751172212e-09 2.0903498931801323e-09 -1.0906899827745065e-09 -6.927179940774408e-10 1.1990000103878629e-09 7.730909824371338 5.474879741668701 0.4173140823841095 -1.0906899827745065e-09 -6.927160511871477e-10 1.1990100023950845e-09 2.9055399894714355 0.9651829600334167 0.10290199518203735 -1.0906899827745065e-09 -6.927179940774408e-10 1.1990000103878629e-09 10.27859878540039 0.73180091381073 0.025912316516041756 -1.090699974781728e-09 -6.927179940774408e-10 1.1990100023950845e-09 2.221669912338257 -0.733487069606781 -0.208919957280159 -1.7142000709527427e-13 -5.088869863695278e-13 -1.6230799256694572e-13 -111.6729965209961 43.75210952758789 49.807701110839844 27.64459991455078 -41.98460006713867 -87.55789947509766 7.001570701599121 -57.47490310668945 12.732101440429688 -3.8430297832903193e-10 -1.8261198109215115e-10 -1.7217299808081066e-10 -6.516200357076229e-10 -3.241079904459099e-10 -3.17411985584215e-10 -3.8430797433264274e-10 -1.8260899736777247e-10 -1.7216698899868987e-10 -7.730909824371338 5.474879741668701 -0.4173140823841095 -3.843010076831632e-10 -1.8260801204483812e-10 -1.7217299808081066e-10 -2.9055399894714355 0.9651829600334167 -0.10290199518203735 -3.8430997273408707e-10 -1.8260498668709602e-10 -1.7217099967936633e-10 -10.27859878540039 0.73180091381073 -0.025912316516041756 -3.8430297832903193e-10 -1.8260200296271734e-10 -1.7217599568297715e-10 -2.221669912338257 -0.733487069606781 0.208919957280159 -2.0321699480147914e-16 0.0 -3.8825099822884138e-19 -30.825897216796875 -49.3098030090332 -21.581697463989258 -0.9946050047874451 57.83829879760742 1.200719952583313 -0.5570810437202454 3.192700147628784 10.072999000549316 2.0321699480147914e-16 0.0 3.8825099822884138e-19 7.561669826507568 -0.6096581816673279 -11.723200798034668 0.17492300271987915 43.51580047607422 -1.9670798778533936 12.431897163391113 -15.820099830627441 29.579694747924805
-57.27089974861776 70.53909967219768 23.66180003580668 10.327010154724121 -69.70989990234375 -14.534024238586426 -11.040299415588379 14.102799415588379 7.658900737762451 1.9053701162338257 -8.720490455627441 1.9053800106048584 -8.811660766601562 15.639400482177734 -13.466798782348633 11.099699020385742 -24.41910171508789 -24.135601043701172 -0.0 0.0 -0.0 -0.0 0.0 -0.0 -2.1251099838193177e-13 -7.254910105829182e-13 -2.503159897242202e-13 30.004098892211914 -15.953699111938477 62.7299919128418 -8.985350608825684 -3.5510504245758057 15.906599044799805 -0.48946693539619446 19.99100112915039 2.921039581298828 -9.798829525564656e-10 -9.031239089907217e-10 2.034570067976915e-09 -1.6602700325663022e-09 -1.5687200427549897e-09 3.5282297083938374e-09 -9.798829525564656e-10 -9.031229097899995e-10 2.034570067976915e-09 7.730909824371338 5.474879741668701 0.4173140823841095 -9.7988495095791e-10 -9.031219661004286e-10 2.034570067976915e-09 2.9055399894714355 0.9651829600334167 0.10290199518203735 -9.798779565528548e-10 -9.031239089907217e-10 2.034570067976915e-09 10.27859878540039 0.73180091381073 0.025912316516041756 -9.798859501586321e-10 -9.031239089907217e-10 2.034579837939532e-09 2.221669912338257 -0.733487069606781 -0.208919957280159 -2.1262900023587966e-13 -7.254890048088991e-13 -2.505649767531315e-13 -111.9419937133789 45.562801361083984 49.093990325927734 27.820398330688477 -41.32129669189453 -86.28069305419922 6.041840553283691 -55.04739761352539 11.584699630737305 2.797489739858605e-10 -4.76725993750482e-12 -1.4417199378780055e-10 4.91472973429552e-10 -4.391559598609929e-12 -2.41898001629437e-10 2.7974600413926964e-10 -4.763050197309493e-12 -1.4416300098130108e-10 -7.730909824371338 5.474879741668701 -0.4173140823841095 2.7974600413926964e-10 -4.765369522596874e-12 -1.4418100047208782e-10 -2.9055399894714355 0.9651829600334167 -0.10290199518203735 2.797439779822497e-10 -4.759690037936526e-12 -1.4417199378780055e-10 -10.27859878540039 0.73180091381073 -0.025912316516041756 2.7975297078874917e-10 -4.756719757664785e-12 -1.4418199967280998e-10 -2.221669912338257 -0.733487069606781 0.208919957280159 -2.0321699480147914e-16 0.0 -3.8825099822884138e-19 -31.74850082397461 -50.5005989074707 -23.424001693725586 -1.0440599918365479 58.76850509643555 1.2736899852752686 -0.3937720060348511 2.5185303688049316 10.457300186157227 2.0321699480147914e-16 0.0 3.8825099822884138e-19 8.25547981262207 -0.9286868572235107 -10.424798965454102 0.1560019850730896 42.83679962158203 -1.9690098762512207 12.272499084472656 -16.030500411987305 29.128894805908203
-57.81689973478329 70.36620026354797 23.768800038446276 13.796991348266602 -70.10598754882812 -16.627012252807617 -11.686299324035645 13.10309886932373 8.124749183654785 2.0525801181793213 -8.472391128540039 2.0547304153442383 -9.079239845275879 15.754898071289062 -13.451099395751953 10.655399322509766 -25.008399963378906 -24.151798248291016 -0.0 0.0 -0.0 -0.0 0.0 -0.0 -1.852119803011365e-13 -6.649349582228681e-13 -2.8292000903498704e-13 26.579898834228516 -14.953201293945312 62.18349838256836 -9.461380958557129 -3.820390224456787 16.795198440551758 -0.31897202134132385 15.864298820495605 2.2889697551727295 -1.0764900082449458e-09 -8.181099686588311e-10 2.0819999058119265e-09 -1.8357898534659967e-09 -1.4200399744979109e-09 3.6115599399977327e-09 -1.0764900082449458e-09 -8.18108969458109e-10 2.0819999058119265e-09 7.730909824371338 5.474879741668701 0.4173140823841095 -1.0764900082449458e-09 -8.181099686588311e-10 2.0819999058119265e-09 2.9055399894714355 0.9651829600334167 0.10290199518203735 -1.0764900082449458e-09 -8.181099686588311e-10 2.0819999058119265e-09 10.27859878540039 0.73180091381073 0.025912316516041756 -1.0764900082449458e-09 -8.181099686588311e-10 2.082009897819148e-09 2.221669912338257 -0.733487069606781 -0.208919957280159 -1.8533499659013214e-13 -6.649349582228681e-13 -2.8316899606389834e-13 -112.53899383544922 47.210391998291016 48.753902435302734 27.950498580932617 -40.66779327392578 -85.12689971923828 5.060789585113525 -51.98609924316406 10.357800483703613 5.703509886600955e-10 9.55438922423113e-11 -8.545509438961929e-11 9.895779751190048e-10 1.7425599851961238e-10 -1.2867999721333234e-10 5.703489902586512e-10 9.554820129542563e-11 -8.544560198275875e-11 -7.730909824371338 5.474879741668701 -0.4173140823841095 5.703419403424448e-10 9.554280283596839e-11 -8.547099833444705e-11 -2.9055399894714355 0.9651829600334167 -0.10290199518203735 5.703469918572068e-10 9.555019275797605e-11 -8.545669727411109e-11 -10.27859878540039 0.73180091381073 -0.025912316516041756 5.703579830651506e-10 9.55526005541607e-11 -8.547099833444705e-11 -2.221669912338257 -0.733487069606781 0.208919957280159 -2.0321699480147914e-16 0.0 -3.8825099822884138e-19 -33.2864990234375 -51.95280456542969 -24.893497467041016 -1.1023401021957397 59.7887077331543 1.3579100370407104 -0.25796395540237427 1.970719575881958 10.746601104736328 2.0321699480147914e-16 0.0 3.8825099822884138e-19 8.084391593933105 -1.1823298931121826 -9.10099983215332 0.13293999433517456 42.083595275878906 -1.9807196855545044 12.168000221252441 -16.2460994720459 28.839799880981445
-58.404699731617356 70.26690297339432 23.81680003994208 18.082990646362305 -70.47219848632812 -20.178979873657227 -12.980198860168457 13.108400344848633 8.416300773620605 2.269279956817627 -8.515469551086426 2.0997297763824463 -9.131330490112305 15.99949836730957 -13.171201705932617 10.253600120544434 -25.471702575683594 -23.678199768066406 -0.0 0.0 -0.0 -0.0 0.0 -0.0 -2.664019998370649e-16 6.101559822712169e-14 -4.952689734022409e-13 27.325897216796875 -15.489401817321777 62.88109588623047 -9.545180320739746 -3.8683698177337646 16.952701568603516 -0.4408309757709503 18.801000595092773 2.738039493560791 -1.3169300094872938e-09 -7.992319583927099e-10 2.943929766630049e-09 -2.2311599234825508e-09 -1.3936299891881276e-09 5.10586994906248e-09 -1.3169300094872938e-09 -7.992349004837251e-10 2.9439199966674323e-09 7.730909824371338 5.474879741668701 0.4173140823841095 -1.3169300094872938e-09 -7.992349004837251e-10 2.9439199966674323e-09 2.9055399894714355 0.9651829600334167 0.10290199518203735 -1.3169300094872938e-09 -7.992349004837251e-10 2.943929766630049e-09 10.27859878540039 0.73180091381073 0.025912316516041756 -1.316939890472213e-09 -7.992319583927099e-10 2.9439399806818756e-09 2.221669912338257 -0.733487069606781 -0.208919957280159 -3.6101896817715927e-16 6.101279963026396e-14 -4.955209961972351e-13 -112.3290023803711 47.6215934753418 48.4004020690918 27.9635009765625 -40.58680725097656 -84.99190521240234 4.939039707183838 -51.55569839477539 10.200800895690918 4.161569699956402e-10 3.409669768750234e-11 -2.7009397496335907e-10 7.333599838510452e-10 7.003780194692055e-11 -4.582529633534449e-10 4.1615200174760503e-10 3.409390131325907e-11 -2.7009000591604604e-10 -7.730909824371338 5.474879741668701 -0.4173140823841095 4.1615100254688286e-10 3.409169821444458e-11 -2.7010296776985854e-10 -2.9055399894714355 0.9651829600334167 -0.10290199518203735 4.161499755905851e-10 3.4096097473179654e-11 -2.7009497416408124e-10 -10.27859878540039 0.73180091381073 -0.025912316516041756 4.1616196599925104e-10 3.409699952938716e-11 -2.701099899304893e-10 -2.221669912338257 -0.733487069606781 0.208919957280159 -2.0321699480147914e-16 0.0 -3.8825099822884138e-19 -34.68939971923828 -52.672908782958984 -25.507198333740234 -1.1602200269699097 60.76789855957031 1.4487699270248413 -0.10835898667573929 1.3664301633834839 11.102898597717285 2.0321699480147914e-16 0.0 3.8825099822884138e-19 7.192799091339111 -0.18904893100261688 -8.336600303649902 0.09754738956689835 40.731605529785156 -1.984169840812683 12.105500221252441 -16.309402465820312 28.9158992767334
